<svg xmlns="http://www.w3.org/2000/svg" width="47.194" height="45.672" viewBox="0 0 47.194 45.672">
  <path fill="#FFF" d="M25.879 14.729H15.42c-.273 0-.5.227-.5.5V31.4c0 .273.227.5.5.5h16.171c.273 0 .5-.227.5-.5V20.661c0-.645-1-.645-1 0v10.312c0 .77.338-.073.37-.073H15.454c.522 0 .467.816.467.214v-1.158-4.126-9.157-.944c0-.854.093 0-.451 0h10.41c.643 0 .643-1-.001-1z"/>
  <path fill="none" stroke="#FFF" stroke-miterlimit="10" d="M23.935 25.323l9.76-9.76c.389-.389.389-1.025 0-1.414l-1.03-1.03c-.389-.389-1.025-.389-1.414 0l-9.76 9.76M30.041 14.007l2.445 2.444"/>
  <path fill="#FFF" d="M23.822 24.765c-.946.165-1.892.331-2.839.496-.634.111-.365 1.075.266.964.946-.165 1.892-.331 2.839-.496.634-.111.364-1.074-.266-.964z"/>
  <path fill="#FFF" d="M21.616 25.743l.375-2.865c.083-.638-.918-.63-1 0l-.375 2.865c-.083.638.918.63 1 0z"/>
  <path fill="none" stroke="#FFF" stroke-miterlimit="10" d="M21.921 22.792l2.283 2.283"/>
</svg>
